<svg id="visual" viewBox="0 0 960 540" width="960" height="540" xmlns="http://www.w3.org/2000/svg" xmlns:xlink="http://www.w3.org/1999/xlink" version="1.1"><path d="M0 12L80 24.5C160 37 320 62 480 62C640 62 800 37 880 24.5L960 12L960 0L880 0C800 0 640 0 480 0C320 0 160 0 80 0L0 0Z" fill="#000000"></path><path d="M0 17L80 42.2C160 67.3 320 117.7 480 117.7C640 117.7 800 67.3 880 42.2L960 17L960 10L880 22.5C800 35 640 60 480 60C320 60 160 35 80 22.5L0 10Z" fill="#001658"></path><path d="M0 125L80 139.5C160 154 320 183 480 166.8C640 150.7 800 89.3 880 58.7L960 28L960 15L880 40.2C800 65.3 640 115.7 480 115.7C320 115.7 160 65.3 80 40.2L0 15Z" fill="#002268"></path><path d="M0 185L80 189.5C160 194 320 203 480 185C640 167 800 122 880 99.5L960 77L960 26L880 56.7C800 87.3 640 148.7 480 164.8C320 181 160 152 80 137.5L0 123Z" fill="#002f78"></path><path d="M0 195L80 208.5C160 222 320 249 480 239.2C640 229.3 800 182.7 880 159.3L960 136L960 75L880 97.5C800 120 640 165 480 183C320 201 160 192 80 187.5L0 183Z" fill="#003c89"></path><path d="M0 222L80 235.5C160 249 320 276 480 264.3C640 252.7 800 202.3 880 177.2L960 152L960 134L880 157.3C800 180.7 640 227.3 480 237.2C320 247 160 220 80 206.5L0 193Z" fill="#004b9a"></path><path d="M0 395L80 396.8C160 398.7 320 402.3 480 417.7C640 433 800 460 880 473.5L960 487L960 150L880 175.2C800 200.3 640 250.7 480 262.3C320 274 160 247 80 233.5L0 220Z" fill="#0659ab"></path><path d="M0 401L80 407.2C160 413.3 320 425.7 480 442.7C640 459.7 800 481.3 880 492.2L960 503L960 485L880 471.5C800 458 640 431 480 415.7C320 400.3 160 396.7 80 394.8L0 393Z" fill="#1267bc"></path><path d="M0 401L80 407.2C160 413.3 320 425.7 480 442.7C640 459.7 800 481.3 880 492.2L960 503L960 501L880 490.2C800 479.3 640 457.7 480 440.7C320 423.7 160 411.3 80 405.2L0 399Z" fill="#1c76cc"></path><path d="M0 449L80 448.2C160 447.3 320 445.7 480 459.2C640 472.7 800 501.3 880 515.7L960 530L960 501L880 490.2C800 479.3 640 457.7 480 440.7C320 423.7 160 411.3 80 405.2L0 399Z" fill="#2484dd"></path><path d="M0 509L80 513.5C160 518 320 527 480 531.5C640 536 800 536 880 536L960 536L960 528L880 513.7C800 499.3 640 470.7 480 457.2C320 443.7 160 445.3 80 446.2L0 447Z" fill="#2c94ee"></path><path d="M0 541L80 541C160 541 320 541 480 541C640 541 800 541 880 541L960 541L960 534L880 534C800 534 640 534 480 529.5C320 525 160 516 80 511.5L0 507Z" fill="#34a3ff"></path></svg>