<svg xmlns="http://www.w3.org/2000/svg" xmlns:xlink="http://www.w3.org/1999/xlink" id="visual" width="900" height="600" version="1.1" viewBox="0 0 900 600"><path fill="#06F" stroke-linecap="round" stroke-linejoin="miter" d="M0 392L21.5 365.7C43 339.3 86 286.7 128.8 270C171.7 253.3 214.3 272.7 257.2 299.5C300 326.3 343 360.7 385.8 372.3C428.7 384 471.3 373 514.2 347.5C557 322 600 282 642.8 276.7C685.7 271.3 728.3 300.7 771.2 333C814 365.3 857 400.7 878.5 418.3L900 436L900 601L878.5 601C857 601 814 601 771.2 601C728.3 601 685.7 601 642.8 601C600 601 557 601 514.2 601C471.3 601 428.7 601 385.8 601C343 601 300 601 257.2 601C214.3 601 171.7 601 128.8 601C86 601 43 601 21.5 601L0 601Z"/></svg>